<?xml version="1.0" encoding="UTF-8" standalone="no"?>
<svg
   width="250cm"
   height="125cm"
   viewBox="0 0 2500 1250"
   version="1.1"
   id="svg67"
   sodipodi:docname="brace-corner-1250-2.svg"
   inkscape:version="1.2.2 (b0a8486541, 2022-12-01)"
   xmlns:inkscape="http://www.inkscape.org/namespaces/inkscape"
   xmlns:sodipodi="http://sodipodi.sourceforge.net/DTD/sodipodi-0.dtd"
   xmlns="http://www.w3.org/2000/svg"
   xmlns:svg="http://www.w3.org/2000/svg">
  <defs
     id="defs71" />
  <sodipodi:namedview
     id="namedview69"
     pagecolor="#ffffff"
     bordercolor="#666666"
     borderopacity="1.0"
     inkscape:showpageshadow="2"
     inkscape:pageopacity="0.0"
     inkscape:pagecheckerboard="0"
     inkscape:deskcolor="#d1d1d1"
     inkscape:document-units="mm"
     showgrid="false"
     inkscape:zoom="0.067950765"
     inkscape:cx="522.43709"
     inkscape:cy="4444.3944"
     inkscape:window-width="2256"
     inkscape:window-height="1419"
     inkscape:window-x="0"
     inkscape:window-y="0"
     inkscape:window-maximized="1"
     inkscape:current-layer="svg67" />
  <g
     id="Sketch002"
     transform="matrix(1,0,0,-1,17.231719,-509.67121)">
    <path
       id="Sketch002_w0000"
       d="m 577.41003,-624.82929 a 1027.5318,1027.5169 59.818969 0 1 378.4334,373.75315 l 0.023,-0.0135 47.45867,-27.79555 -315.86177,-539.3081 -625.703693,3.8909 -0.023,0.014 0.3427,54.999 a 1027.5318,1027.5169 59.818969 0 1 515.330593,134.4606 l 0.023,-0.014 A 1027.5318,1027.5169 59.818969 0 0 62.102337,-759.30339 l -0.3427,-54.999 m 0.3194,55.0125 0.023,-0.013 m 515.330693,134.4606 a 1027.5318,1027.5169 59.818969 0 1 378.4335,373.75316"
       stroke="#191919"
       stroke-width="0.35 px"
       style="fill:none;fill-opacity:1;fill-rule:evenodd;stroke-width:0.35;stroke-linecap:square;stroke-miterlimit:4;stroke-dasharray:none" />
    <title
       id="title64">b'Sketch002'</title>
  </g>
  <g
     id="Sketch002-3"
     transform="matrix(1,0,0,-1,1032.7566,-777.68243)">
    <path
       id="Sketch002_w0000-6"
       d="m 507.85752,-892.84026 a 1027.5318,1027.5169 59.818969 0 1 378.43344,373.75316 l 0.0232,-0.0135 47.45861,-27.79555 -315.86171,-539.30805 -625.7036899,3.8909 -0.023223,0.014 0.34269,54.999 A 1027.5318,1027.5169 59.818969 0 1 507.85752,-892.84026 l 0.0232,-0.0135 A 1027.5318,1027.5169 59.818969 0 0 -7.44992,-1027.3143 l -0.3426899,-54.999 m 0.319467,55.0125 0.023223,-0.014 M 507.88074,-892.85427 a 1027.5318,1027.5169 59.818969 0 1 378.43344,373.75317"
       stroke="#191919"
       stroke-width="0.35 px"
       style="fill:none;fill-opacity:1;fill-rule:evenodd;stroke-width:0.35;stroke-linecap:square;stroke-miterlimit:4;stroke-dasharray:none" />
    <title
       id="title64-7">b'Sketch002'</title>
  </g>
</svg>
