<?xml version="1.0" encoding="UTF-8" standalone="no"?>
<!-- Created with Inkscape (http://www.inkscape.org/) -->

<svg
   width="841mm"
   height="1189mm"
   viewBox="0 0 841 1189"
   version="1.1"
   id="svg191"
   inkscape:version="1.2.2 (b0a8486541, 2022-12-01)"
   sodipodi:docname="brace-corner-1250-A0.svg"
   xmlns:inkscape="http://www.inkscape.org/namespaces/inkscape"
   xmlns:sodipodi="http://sodipodi.sourceforge.net/DTD/sodipodi-0.dtd"
   xmlns="http://www.w3.org/2000/svg"
   xmlns:svg="http://www.w3.org/2000/svg">
  <sodipodi:namedview
     id="namedview193"
     pagecolor="#ffffff"
     bordercolor="#666666"
     borderopacity="1.0"
     inkscape:showpageshadow="2"
     inkscape:pageopacity="0.0"
     inkscape:pagecheckerboard="0"
     inkscape:deskcolor="#d1d1d1"
     inkscape:document-units="mm"
     showgrid="false"
     inkscape:zoom="0.2102413"
     inkscape:cx="397.16269"
     inkscape:cy="561.25984"
     inkscape:window-width="3840"
     inkscape:window-height="2075"
     inkscape:window-x="2256"
     inkscape:window-y="0"
     inkscape:window-maximized="1"
     inkscape:current-layer="layer1" />
  <defs
     id="defs188" />
  <g
     inkscape:label="Layer 1"
     inkscape:groupmode="layer"
     id="layer1">
    <g
       id="Sketch002-3"
       transform="matrix(0,-1,-1,0,-460.42992,1071.291)">
      <path
         id="Sketch002_w0000-6"
         d="m 507.85752,-892.84026 a 1027.5318,1027.5169 59.818969 0 1 378.43344,373.75316 l 0.0232,-0.0135 47.45861,-27.79555 -315.86171,-539.30805 -625.7036899,3.8909 -0.023223,0.014 0.34269,54.999 A 1027.5318,1027.5169 59.818969 0 1 507.85752,-892.84026 l 0.0232,-0.0135 A 1027.5318,1027.5169 59.818969 0 0 -7.44992,-1027.3143 l -0.3426899,-54.999 m 0.319467,55.0125 0.023223,-0.014 M 507.88074,-892.85427 a 1027.5318,1027.5169 59.818969 0 1 378.43344,373.75317"
         stroke="#191919"
         stroke-width="0.35 px"
         style="fill:none;fill-opacity:1;fill-rule:evenodd;stroke-width:0.35;stroke-linecap:square;stroke-miterlimit:4;stroke-dasharray:none" />
      <title
         id="title378-7">b'Sketch002'</title>
    </g>
  </g>
</svg>
